<svg id="Layer_1" data-name="Layer 1" xmlns="http://www.w3.org/2000/svg" width="275.2mm" height="66.1mm" viewBox="0 0 780 187.3"><defs><style>.cls-1{fill:#106835;}.cls-2{fill:#fff;}.cls-3{fill:none;stroke:#fff;stroke-linecap:round;stroke-linejoin:round;stroke-width:25.38px;}</style></defs><rect class="cls-1" x="214.2" y="5.8" width="562.3" height="175.73" rx="87.9"/><path class="cls-2" d="M283.7,108.1c.5,10.5,7,13.8,16.8,13.8,6.9,0,14.1-2.5,14.1-9S302,103.6,289.2,100s-25.9-9.3-25.9-25.6c0-19.3,19.4-26.9,36.1-26.9s35.3,8.6,35.4,28.5h-23c.3-8-7.2-10.6-14.3-10.6-5,0-11.2,1.7-11.2,7.5S299.1,81,312,84.6s25.7,9.5,25.7,25.5c0,22.5-19.1,29.7-38.6,29.7s-38.3-9-38.4-31.7Z"/><path class="cls-2" d="M420.7,101.3c0,25.7-11.7,38.5-38.5,38.5s-38.6-12.8-38.6-38.5V49.4h23.1v53.3c0,11.4,4.2,17.2,15.5,17.2s15.5-5.8,15.5-17.2V49.4h23Z"/><path class="cls-2" d="M428.3,49.4h41.4c15.3-.3,32,3.7,32,22.2,0,7.9-4.7,14.3-11.7,17.8,9.5,2.8,15.3,10.9,15.3,21,0,21.1-15.5,27.5-34.5,27.5H428.3Zm23,34.8h17.9c4,0,9.4-2.1,9.4-8.4s-4.6-8.6-9.4-8.6H451.3Zm0,35.2h18.5c7.3,0,12.4-2.6,12.4-9.9s-5.4-10.4-12.4-10.4H451.3Z"/><path class="cls-2" d="M511.2,49.4h34l15.3,59h.2l15.3-59h33.9v88.5H588.2V70.7H588l-18.6,67.2H551.8L533.2,70.7h-.3v67.2H511.2Z"/><path class="cls-2" d="M618.4,49.4h23v88.5h-23Z"/><path class="cls-2" d="M722.6,69.2H696.2v68.7h-23V69.2H646.7V49.4h75.9Z"/><circle class="cls-1" cx="91.3" cy="93.6" r="87.9"/><polyline class="cls-3" points="74 140.5 120.9 93.6 74 46.8"/></svg>